<svg version="1.1" id="Layer_1" xmlns:x="ns_extend;" xmlns:i="ns_ai;" xmlns:graph="ns_graphs;" xmlns="http://www.w3.org/2000/svg" xmlns:xlink="http://www.w3.org/1999/xlink" x="0px" y="0px" viewBox="0 0 198.2 42" style="enable-background:new 0 0 198.2 42;" xml:space="preserve">
 <style type="text/css">
  .st0{fill-rule:evenodd;clip-rule:evenodd;fill:#282828;}
	.st1{fill:#A0C8FF;}
	.st2{fill:#005AD6;}
	.st3{fill:#003F96;}
 </style>
 <metadata>
  <sfw xmlns="ns_sfw;">
   <slices>
   </slices>
   <sliceSourceBounds bottomLeftOrigin="true" height="42" width="198.2" x="101.2" y="-221.2">
   </sliceSourceBounds>
  </sfw>
 </metadata>
 <g>
  <path class="st0" d="M62.1,38.1V23.8h10.9v-2.6v-2.9H62.1V8.9h14.3V3.4H56v34.7h2.9H62.1z M82,10.6c2,0,3.5-1.5,3.5-3.5
		c0-2-1.5-3.5-3.5-3.5c-1.9,0-3.5,1.5-3.5,3.5C78.5,9.1,80.1,10.6,82,10.6z M95.4,25.8v12.3h-5.8V14.6h5.8v3.7
		c1.2-2.9,4.9-4.2,7.3-4.2c6,0,9.4,4,9.4,10.8v13.2h-5.8V25.4c0-3.7-2.3-5.6-4.9-5.6C98.7,19.8,95.4,21.3,95.4,25.8z M144.7,38.6
		c2.4,0,6.1-1.3,7.3-4.2v3.7h5.8V14.6H152v12.3c0,4.6-3.3,6-6,6c-2.6,0-4.9-1.9-4.9-5.7V14.6h-5.8v13.2
		C135.3,34.6,138.7,38.6,144.7,38.6z M181.7,34.9c-1.6,2.5-4.9,3.7-7.8,3.7c-6.2,0-11.6-4.8-11.6-12.3c0-7.5,5.3-12.2,11.5-12.2
		c3,0,6.2,1.2,7.9,3.6v-3.1h5.8v23.5h-5.8V34.9z M174.4,33.1c-3.6,0-6.6-2.9-6.6-6.8s3-6.7,6.6-6.7c3.4,0,6.8,2.6,6.8,6.7
		C181.2,30.4,178,33.1,174.4,33.1z M198.2,3.7v34.5h-5.8V5.2L198.2,3.7z M85,38.1V14.5h-5.8v23.5H85z M130.7,38.3
		c-0.9,0.2-2.1,0.3-3,0.3c-5.4,0-9.1-3.3-9.1-9.6v-9.1h-4.7v-5.3h4.7V8.7l5.6-1.5v7.4h6.4v5.3h-6.4v9c0,3.1,1.9,4.4,4.6,4.4
		c0.6,0,1.3-0.1,1.8-0.2V38.3z">
  </path>
  <g>
   <circle class="st1" cx="27.3" cy="14.7" r="14.7">
   </circle>
   <path class="st2" d="M27.3,14.7H0V42C15.1,42,27.3,29.8,27.3,14.7z">
   </path>
   <path class="st3" d="M23.4,28.8c2.5-4.1,3.9-9,3.9-14.1H12.7C12.7,21.4,17.2,27.1,23.4,28.8z">
   </path>
  </g>
 </g>
</svg>